<svg xmlns="http://www.w3.org/2000/svg" xmlns:xlink="http://www.w3.org/1999/xlink" width="100" zoomAndPan="magnify" viewBox="0 0 75 74.999997" height="100" preserveAspectRatio="xMidYMid meet" version="1.0"><path fill="#29aae2" d="M 37.5 74.015625 C 17.332031 74.015625 0.984375 57.667969 0.984375 37.5 C 0.984375 17.332031 17.332031 0.984375 37.5 0.984375 C 57.667969 0.984375 74.015625 17.332031 74.015625 37.5 C 74.015625 57.667969 57.667969 74.015625 37.5 74.015625 Z M 37.5 0 C 16.789062 0 0 16.789062 0 37.5 C 0 58.210938 16.789062 75 37.5 75 C 58.210938 75 75 58.210938 75 37.5 C 75 16.789062 58.210938 0 37.5 0 " fill-opacity="1" fill-rule="nonzero"/><path fill="#29aae2" d="M 55.261719 53.835938 L 55.261719 55.324219 L 50.820312 55.324219 L 50.820312 26.234375 C 50.820312 24.046875 49.957031 21.976562 48.394531 20.414062 C 46.832031 18.851562 44.765625 17.992188 42.574219 17.992188 L 32.425781 17.992188 C 30.234375 17.992188 28.167969 18.851562 26.605469 20.414062 C 25.042969 21.976562 24.179688 24.046875 24.179688 26.234375 L 24.179688 55.324219 L 19.738281 55.324219 L 19.738281 53.835938 C 14.664062 53.652344 10.605469 49.476562 10.605469 44.359375 C 10.605469 39.238281 14.664062 35.070312 19.738281 34.882812 L 19.738281 33.453125 L 22.042969 33.453125 L 22.042969 26.234375 C 22.042969 20.527344 26.714844 15.855469 32.425781 15.855469 L 42.574219 15.855469 C 48.28125 15.855469 52.953125 20.527344 52.953125 26.234375 L 52.953125 33.453125 L 55.261719 33.453125 L 55.261719 34.882812 C 60.339844 35.070312 64.394531 39.238281 64.394531 44.359375 C 64.394531 49.476562 60.339844 53.652344 55.261719 53.835938 Z M 37.5 1.761719 C 17.761719 1.761719 1.761719 17.761719 1.761719 37.5 C 1.761719 57.238281 17.761719 73.238281 37.5 73.238281 C 57.238281 73.238281 73.238281 57.238281 73.238281 37.5 C 73.238281 17.761719 57.238281 1.761719 37.5 1.761719 " fill-opacity="1" fill-rule="nonzero"/></svg>